<?xml version="1.0" encoding="utf-8"?>
<!-- Generator: Adobe Illustrator 22.1.0, SVG Export Plug-In . SVG Version: 6.00 Build 0)  -->
<svg version="1.1" id="Layer_1" xmlns="http://www.w3.org/2000/svg" xmlns:xlink="http://www.w3.org/1999/xlink" x="0px" y="0px"
	 viewBox="0 0 142 142" style="enable-background:new 0 0 142 142;" xml:space="preserve">
<style type="text/css">
	.st0{fill:#AABACC;}
	.st1{fill:#2444FF;}
	.st2{fill:#1A79FF;}
	.st3{fill:#13B4B3;}
	.st4{fill:#56D8A4;}
	.st5{fill:#7331D0;}
	.st6{enable-background:new    ;}
	.st7{fill:#BCBCBC;}
	.st8{fill:#6F6F6F;}
</style>
<g transform="translate(9 1)">
	<g transform="matrix(1, 0, 0, 1, -9, -1)">
		<path class="st0" d="M71,0C31.8,0,0,31.8,0,71s31.8,71,71,71s71-31.8,71-71S110.2,0,71,0L71,0z M71,122.1
			c-28.2,0-51.1-22.9-51.1-51.1S42.8,19.9,71,19.9s51.1,22.9,51.1,51.1S99.2,122.1,71,122.1L71,122.1L71,122.1z"/>
	</g>
	<path class="st1" d="M47.9,119.1l-5.5,19.1l0,0L47.9,119.1z"/>
	<path class="st2" d="M113.1,70c0,6.3-1.1,12.5-3.4,18.3l18.6,7.1c14-36.6-4.3-77.7-41-91.7C79.3,0.6,70.7-1,62-1v19.9
		C90.2,18.9,113.1,41.8,113.1,70z"/>
	<path class="st3" d="M62,121.1c-4.8,0-9.5-0.7-14.1-2l-5.5,19.1c35.4,10.2,72.7-8.4,85.9-42.8l-18.6-7.1
		C102.2,108.1,83.2,121.1,62,121.1z"/>
	<path class="st4" d="M19.9,99c-4.2-6.1-7.1-13-8.3-20.3L-8,82c4.6,26.8,24.2,48.7,50.3,56.2l5.5-19.1
		C36.5,115.9,26.6,108.7,19.9,99z"/>
	<path class="st5" d="M10.9,70c0-11.1,3.6-21.9,10.3-30.7l-16-12C-4,39.6-9,54.6-9,70c0,4,0.3,8.1,1,12.1l19.6-3.4
		C11.1,75.8,10.9,72.9,10.9,70z"/>
</g>
<g>
	<g class="st6">
		<path class="st7" d="M37.6,53.5l6.2-4.6h1.3v22.8h-1.5V55c0-1.5,0.1-3.1,0.2-4.7c-0.2,0.2-0.3,0.3-0.5,0.5
			c-0.2,0.1-1.8,1.4-4.8,3.8L37.6,53.5z"/>
		<path class="st7" d="M54.5,71.7v-1.3l6.1-6.4c1.7-1.8,2.9-3.1,3.6-4.1s1.2-1.8,1.5-2.7s0.5-1.8,0.5-2.7c0-1.4-0.4-2.5-1.3-3.3
			c-0.9-0.9-2.1-1.3-3.5-1.3c-1.9,0-3.7,0.7-5.5,2.1L55,50.9c1.9-1.6,4-2.4,6.3-2.4c2,0,3.6,0.5,4.7,1.6c1.1,1.1,1.7,2.5,1.7,4.4
			c0,1.5-0.4,3-1.1,4.4c-0.8,1.4-2.2,3.2-4.2,5.2l-5.9,6v0.1h12.2v1.5H54.5z"/>
		<path class="st7" d="M72.7,56.2c0-2.3,0.6-4.2,1.9-5.6c1.3-1.4,3-2.1,5.1-2.1c1.5,0,2.8,0.4,3.9,1.2c1.1,0.8,2,1.9,2.6,3.5
			s0.9,3.3,0.9,5.4c0,3-0.4,5.5-1.2,7.5s-1.9,3.5-3.4,4.5S79.3,72,77.1,72c-1.1,0-2.1-0.1-3-0.4v-1.4c0.4,0.1,1,0.3,1.6,0.3
			c0.6,0.1,1.1,0.1,1.4,0.1c2.6,0,4.6-0.9,6-2.8c1.5-1.9,2.3-4.6,2.4-8.1h-0.2c-0.8,1-1.7,1.8-2.7,2.3s-2.2,0.8-3.3,0.8
			c-2.1,0-3.8-0.6-4.9-1.8C73.3,60,72.7,58.3,72.7,56.2z M74.3,56.1c0,1.8,0.5,3.2,1.4,4.1s2.2,1.4,3.9,1.4c1.1,0,2-0.2,2.9-0.7
			s1.6-1.1,2.2-1.9s0.8-1.6,0.8-2.4c0-1.2-0.2-2.4-0.7-3.4s-1.2-1.9-2-2.5c-0.9-0.6-1.9-0.9-3-0.9c-1.6,0-3,0.6-3.9,1.7
			C74.8,52.6,74.3,54.1,74.3,56.1z"/>
		<path class="st7" d="M91,50.3v-1.5h14.8v1.1l-9.4,21.7h-1.8l9.4-21.4H91z"/>
	</g>
	<g class="st6">
		<path class="st8" d="M40.3,88.1v-0.8h5.9v0.8h-2.5v7h-0.9v-7H40.3z"/>
		<path class="st8" d="M46.9,92.2c0-1,0.2-1.7,0.7-2.2c0.5-0.5,1.1-0.8,2-0.8c0.8,0,1.5,0.3,2,0.8s0.7,1.3,0.7,2.2
			c0,1-0.2,1.7-0.7,2.3s-1.1,0.8-2,0.8c-0.5,0-1-0.1-1.4-0.4c-0.4-0.2-0.7-0.6-0.9-1.1S46.9,92.8,46.9,92.2z M47.8,92.2
			c0,0.8,0.2,1.3,0.5,1.7s0.7,0.6,1.3,0.6c0.6,0,1-0.2,1.3-0.6c0.3-0.4,0.5-1,0.5-1.7c0-0.8-0.2-1.3-0.5-1.7
			c-0.3-0.4-0.8-0.6-1.3-0.6c-0.6,0-1,0.2-1.3,0.6C48,90.8,47.8,91.4,47.8,92.2z"/>
		<path class="st8" d="M53.1,89.9v-0.4l0.8-0.4l0.4-1.3h0.5v1.4h1.7v0.7h-1.7v3.5c0,0.4,0.1,0.6,0.3,0.8c0.2,0.2,0.4,0.3,0.7,0.3
			c0.2,0,0.3,0,0.5,0s0.3,0,0.3-0.1v0.7c-0.1,0-0.2,0.1-0.4,0.1c-0.2,0-0.4,0-0.5,0c-1.1,0-1.7-0.6-1.7-1.8v-3.5H53.1z"/>
		<path class="st8" d="M57.3,93.5c0-1.2,1-1.8,2.9-1.9l1,0v-0.4c0-0.5-0.1-0.8-0.3-1c-0.2-0.2-0.5-0.3-1-0.3c-0.5,0-1,0.2-1.7,0.5
			L58,89.6c0.3-0.2,0.6-0.3,1-0.4c0.3-0.1,0.7-0.1,1-0.1c0.7,0,1.2,0.2,1.6,0.5c0.3,0.3,0.5,0.8,0.5,1.5v4h-0.7l-0.2-0.8h0
			c-0.3,0.4-0.6,0.6-0.9,0.7c-0.3,0.1-0.7,0.2-1.1,0.2c-0.6,0-1-0.1-1.4-0.4C57.5,94.5,57.3,94,57.3,93.5z M58.3,93.5
			c0,0.3,0.1,0.6,0.3,0.7s0.5,0.3,0.8,0.3c0.6,0,1-0.2,1.3-0.5s0.5-0.7,0.5-1.3v-0.5l-0.9,0c-0.7,0-1.2,0.1-1.5,0.3
			C58.4,92.8,58.3,93.1,58.3,93.5z"/>
		<path class="st8" d="M63.9,95.1v-8.4h0.9v8.4H63.9z"/>
		<path class="st8" d="M69.7,95.1v-7.9h2c2,0,2.9,0.8,2.9,2.3c0,0.8-0.3,1.4-0.8,1.8c-0.5,0.4-1.3,0.6-2.3,0.6h-0.9v3.1H69.7z
			 M70.6,91.2h0.8c0.8,0,1.4-0.1,1.8-0.4c0.4-0.3,0.5-0.7,0.5-1.3c0-0.5-0.2-0.9-0.5-1.2c-0.3-0.3-0.9-0.4-1.6-0.4h-1V91.2z"/>
		<path class="st8" d="M76.2,95.1v-5.9h0.7l0.1,1.1h0c0.2-0.4,0.5-0.7,0.8-0.9c0.3-0.2,0.6-0.3,1-0.3c0.3,0,0.5,0,0.7,0.1L79.4,90
			c-0.2-0.1-0.5-0.1-0.6-0.1c-0.5,0-0.9,0.2-1.2,0.6C77.2,90.9,77,91.4,77,92v3.2H76.2z"/>
		<path class="st8" d="M80.3,92.2c0-1,0.2-1.7,0.7-2.2s1.1-0.8,2-0.8c0.8,0,1.5,0.3,2,0.8c0.5,0.5,0.7,1.3,0.7,2.2
			c0,1-0.2,1.7-0.7,2.3c-0.5,0.5-1.1,0.8-2,0.8c-0.5,0-1-0.1-1.4-0.4c-0.4-0.2-0.7-0.6-0.9-1.1C80.4,93.3,80.3,92.8,80.3,92.2z
			 M81.2,92.2c0,0.8,0.2,1.3,0.5,1.7c0.3,0.4,0.7,0.6,1.3,0.6c0.6,0,1-0.2,1.3-0.6c0.3-0.4,0.5-1,0.5-1.7c0-0.8-0.2-1.3-0.5-1.7
			c-0.3-0.4-0.8-0.6-1.3-0.6c-0.6,0-1,0.2-1.3,0.6C81.4,90.8,81.2,91.4,81.2,92.2z"/>
		<path class="st8" d="M86.5,89.9v-0.4l1.1-0.3v-0.3c0-1.4,0.6-2.2,1.9-2.2c0.3,0,0.7,0.1,1.1,0.2l-0.2,0.7
			c-0.3-0.1-0.6-0.2-0.9-0.2c-0.3,0-0.6,0.1-0.7,0.3s-0.2,0.6-0.2,1.1v0.4h1.5v0.7h-1.5v5.2h-0.9v-5.2H86.5z M90.9,87.6
			c0-0.2,0.1-0.3,0.2-0.4c0.1-0.1,0.2-0.1,0.4-0.1c0.2,0,0.3,0,0.4,0.1c0.1,0.1,0.2,0.2,0.2,0.4c0,0.2-0.1,0.4-0.2,0.5
			c-0.1,0.1-0.3,0.1-0.4,0.1c-0.2,0-0.3,0-0.4-0.1C91,88,90.9,87.8,90.9,87.6z M91,95.1v-5.9h0.9v5.9H91z"/>
		<path class="st8" d="M93.8,95.1v-8.4h0.9v8.4H93.8z"/>
		<path class="st8" d="M96.3,92.2c0-0.9,0.2-1.7,0.7-2.3s1.1-0.8,1.9-0.8c0.7,0,1.3,0.2,1.7,0.7s0.6,1.1,0.6,1.9v0.6h-4
			c0,0.7,0.2,1.2,0.5,1.6c0.3,0.4,0.8,0.5,1.4,0.5c0.6,0,1.3-0.1,1.9-0.4v0.8c-0.3,0.1-0.6,0.2-0.9,0.3c-0.3,0.1-0.6,0.1-1,0.1
			c-0.9,0-1.6-0.3-2.1-0.8C96.5,93.9,96.3,93.2,96.3,92.2z M97.2,91.6h3.1c0-0.6-0.1-1-0.4-1.3s-0.6-0.4-1.1-0.4
			c-0.5,0-0.9,0.2-1.1,0.5C97.4,90.6,97.2,91.1,97.2,91.6z"/>
	</g>
</g>
</svg>
