<svg xmlns="http://www.w3.org/2000/svg" width="16.001" height="8.004" viewBox="0 0 16.001 8.004"><defs><style>.a{fill:#889cb2;}</style></defs><path class="a" d="M0,8A4,4,0,0,1,7.465,6H14a.5.5,0,0,1,.354.146l1.5,1.5a.5.5,0,0,1,0,.708l-1.5,1.5a.5.5,0,0,1-.708,0L13,9.207l-.646.647a.5.5,0,0,1-.708,0L11,9.207l-.646.647a.5.5,0,0,1-.708,0L9,9.207l-.646.647A.5.5,0,0,1,8,10H7.465A4,4,0,0,1,0,8ZM4,5A3,3,0,1,0,6.712,9.285.5.5,0,0,1,7.163,9h.63l.853-.854a.5.5,0,0,1,.708,0L10,8.793l.646-.647a.5.5,0,0,1,.708,0L12,8.793l.646-.647a.5.5,0,0,1,.708,0L14,8.793,14.793,8l-1-1H7.163a.5.5,0,0,1-.451-.285A3,3,0,0,0,4,5Z" transform="translate(0 -3.998)"/><path class="a" d="M4,8A1,1,0,1,1,3,7,1,1,0,0,1,4,8Z" transform="translate(0 -3.998)"/></svg>