<svg xmlns="http://www.w3.org/2000/svg" width="24" height="24" viewBox="0 0 24 24"><defs><style>.a{fill:#0467d2;}.b{fill:#fff;}</style></defs><circle class="a" cx="12" cy="12" r="12"/><path class="b" d="M4.447,11.306V5.49H2.514v5.816ZM3.481,4.7a1.008,1.008,0,1,0,.013-2.009A1.007,1.007,0,1,0,3.468,4.7Zm3.951,6.611V8.058A1.312,1.312,0,0,1,7.5,7.586a1.057,1.057,0,0,1,.992-.707c.7,0,.979.533.979,1.315v3.111H11.4V7.97c0-1.787-.953-2.618-2.225-2.618a1.921,1.921,0,0,0-1.743.96v.02H7.419l.013-.02V5.49H5.5c.024.546,0,5.816,0,5.816Z" transform="translate(5.6 4.314)"/></svg>