<svg xmlns="http://www.w3.org/2000/svg" width="24" height="24" viewBox="0 0 24 24"><defs><style>.a{fill:#42c0fb;}.b{fill:#fff;stroke:#fff;}</style></defs><circle class="a" cx="12" cy="12" r="12"/><path class="b" d="M2.827,9.312a5.218,5.218,0,0,0,5.254-5.25c0-.079,0-.159,0-.237A3.76,3.76,0,0,0,9,2.867a3.745,3.745,0,0,1-1.063.291,1.857,1.857,0,0,0,.814-1.022,3.675,3.675,0,0,1-1.174.446A1.848,1.848,0,0,0,4.43,4.267,5.245,5.245,0,0,1,.623,2.338,1.85,1.85,0,0,0,1.2,4.8a1.869,1.869,0,0,1-.836-.23V4.6a1.849,1.849,0,0,0,1.481,1.81,1.8,1.8,0,0,1-.487.065,1.817,1.817,0,0,1-.345-.032A1.847,1.847,0,0,0,2.734,7.722a3.706,3.706,0,0,1-2.3.791A3.555,3.555,0,0,1,0,8.488a5.256,5.256,0,0,0,2.827.824Z" transform="translate(8.5 6.501)"/></svg>